<svg width="74" height="82" viewBox="0 0 74 82" fill="none" xmlns="http://www.w3.org/2000/svg">
<path d="M1.32142 0H0V1.32142H1.32142V0Z" fill="#9447F6" fill-opacity="0.5"/>
<path d="M1.32142 7.98596H0V9.30738H1.32142V7.98596Z" fill="#9447F6" fill-opacity="0.5"/>
<path d="M1.32142 15.9783H0V17.2997H1.32142V15.9783Z" fill="#9447F6" fill-opacity="0.5"/>
<path d="M1.32142 23.9642H0V25.2856H1.32142V23.9642Z" fill="#9447F6" fill-opacity="0.5"/>
<path d="M1.32142 31.9501H0V33.2716H1.32142V31.9501Z" fill="#9447F6" fill-opacity="0.5"/>
<path d="M1.32142 39.9361H0V41.2575H1.32142V39.9361Z" fill="#9447F6" fill-opacity="0.5"/>
<path d="M1.32142 47.9284H0V49.2499H1.32142V47.9284Z" fill="#9447F6" fill-opacity="0.5"/>
<path d="M1.32142 55.9144H0V57.2358H1.32142V55.9144Z" fill="#9447F6" fill-opacity="0.5"/>
<path d="M1.32142 63.9003H0V65.2217H1.32142V63.9003Z" fill="#9447F6" fill-opacity="0.5"/>
<path d="M1.32142 71.8926H0V73.2141H1.32142V71.8926Z" fill="#9447F6" fill-opacity="0.5"/>
<path d="M1.32142 79.8786H0V81.2H1.32142V79.8786Z" fill="#9447F6" fill-opacity="0.5"/>
<path d="M8.55408 0H7.23267V1.32142H8.55408V0Z" fill="#9447F6" fill-opacity="0.5"/>
<path d="M8.55408 7.98596H7.23267V9.30738H8.55408V7.98596Z" fill="#9447F6" fill-opacity="0.5"/>
<path d="M8.55408 15.9783H7.23267V17.2997H8.55408V15.9783Z" fill="#9447F6" fill-opacity="0.5"/>
<path d="M8.55408 23.9642H7.23267V25.2856H8.55408V23.9642Z" fill="#9447F6" fill-opacity="0.5"/>
<path d="M8.55408 31.9501H7.23267V33.2716H8.55408V31.9501Z" fill="#9447F6" fill-opacity="0.5"/>
<path d="M8.55408 39.9361H7.23267V41.2575H8.55408V39.9361Z" fill="#9447F6" fill-opacity="0.5"/>
<path d="M8.55408 47.9284H7.23267V49.2499H8.55408V47.9284Z" fill="#9447F6" fill-opacity="0.5"/>
<path d="M8.55408 55.9144H7.23267V57.2358H8.55408V55.9144Z" fill="#9447F6" fill-opacity="0.5"/>
<path d="M8.55408 63.9003H7.23267V65.2217H8.55408V63.9003Z" fill="#9447F6" fill-opacity="0.5"/>
<path d="M8.55408 71.8926H7.23267V73.2141H8.55408V71.8926Z" fill="#9447F6" fill-opacity="0.5"/>
<path d="M8.55408 79.8786H7.23267V81.2H8.55408V79.8786Z" fill="#9447F6" fill-opacity="0.5"/>
<path d="M15.7867 0H14.4653V1.32142H15.7867V0Z" fill="#9447F6" fill-opacity="0.5"/>
<path d="M15.7867 7.98596H14.4653V9.30738H15.7867V7.98596Z" fill="#9447F6" fill-opacity="0.5"/>
<path d="M15.7867 15.9783H14.4653V17.2997H15.7867V15.9783Z" fill="#9447F6" fill-opacity="0.5"/>
<path d="M15.7867 23.9642H14.4653V25.2856H15.7867V23.9642Z" fill="#9447F6" fill-opacity="0.5"/>
<path d="M15.7867 31.9501H14.4653V33.2716H15.7867V31.9501Z" fill="#9447F6" fill-opacity="0.5"/>
<path d="M15.7867 39.9361H14.4653V41.2575H15.7867V39.9361Z" fill="#9447F6" fill-opacity="0.5"/>
<path d="M15.7867 47.9284H14.4653V49.2499H15.7867V47.9284Z" fill="#9447F6" fill-opacity="0.5"/>
<path d="M15.7867 55.9144H14.4653V57.2358H15.7867V55.9144Z" fill="#9447F6" fill-opacity="0.5"/>
<path d="M15.7867 63.9003H14.4653V65.2217H15.7867V63.9003Z" fill="#9447F6" fill-opacity="0.5"/>
<path d="M15.7867 71.8926H14.4653V73.2141H15.7867V71.8926Z" fill="#9447F6" fill-opacity="0.5"/>
<path d="M15.7867 79.8786H14.4653V81.2H15.7867V79.8786Z" fill="#9447F6" fill-opacity="0.5"/>
<path d="M23.0194 0H21.698V1.32142H23.0194V0Z" fill="#9447F6" fill-opacity="0.5"/>
<path d="M23.0194 7.98596H21.698V9.30738H23.0194V7.98596Z" fill="#9447F6" fill-opacity="0.5"/>
<path d="M23.0194 15.9783H21.698V17.2997H23.0194V15.9783Z" fill="#9447F6" fill-opacity="0.5"/>
<path d="M23.0194 23.9642H21.698V25.2856H23.0194V23.9642Z" fill="#9447F6" fill-opacity="0.5"/>
<path d="M23.0194 31.9501H21.698V33.2716H23.0194V31.9501Z" fill="#9447F6" fill-opacity="0.5"/>
<path d="M23.0194 39.9361H21.698V41.2575H23.0194V39.9361Z" fill="#9447F6" fill-opacity="0.5"/>
<path d="M23.0194 47.9284H21.698V49.2499H23.0194V47.9284Z" fill="#9447F6" fill-opacity="0.5"/>
<path d="M23.0194 55.9144H21.698V57.2358H23.0194V55.9144Z" fill="#9447F6" fill-opacity="0.5"/>
<path d="M23.0194 63.9003H21.698V65.2217H23.0194V63.9003Z" fill="#9447F6" fill-opacity="0.5"/>
<path d="M23.0194 71.8926H21.698V73.2141H23.0194V71.8926Z" fill="#9447F6" fill-opacity="0.5"/>
<path d="M23.0194 79.8786H21.698V81.2H23.0194V79.8786Z" fill="#9447F6" fill-opacity="0.5"/>
<path d="M30.2521 0H28.9307V1.32142H30.2521V0Z" fill="#9447F6" fill-opacity="0.5"/>
<path d="M30.2521 7.98596H28.9307V9.30738H30.2521V7.98596Z" fill="#9447F6" fill-opacity="0.5"/>
<path d="M30.2521 15.9783H28.9307V17.2997H30.2521V15.9783Z" fill="#9447F6" fill-opacity="0.5"/>
<path d="M30.2521 23.9642H28.9307V25.2856H30.2521V23.9642Z" fill="#9447F6" fill-opacity="0.5"/>
<path d="M30.2521 31.9501H28.9307V33.2716H30.2521V31.9501Z" fill="#9447F6" fill-opacity="0.5"/>
<path d="M30.2521 39.9361H28.9307V41.2575H30.2521V39.9361Z" fill="#9447F6" fill-opacity="0.5"/>
<path d="M30.2521 47.9284H28.9307V49.2499H30.2521V47.9284Z" fill="#9447F6" fill-opacity="0.5"/>
<path d="M30.2521 55.9144H28.9307V57.2358H30.2521V55.9144Z" fill="#9447F6" fill-opacity="0.5"/>
<path d="M30.2521 63.9003H28.9307V65.2217H30.2521V63.9003Z" fill="#9447F6" fill-opacity="0.5"/>
<path d="M30.2521 71.8926H28.9307V73.2141H30.2521V71.8926Z" fill="#9447F6" fill-opacity="0.5"/>
<path d="M30.2521 79.8786H28.9307V81.2H30.2521V79.8786Z" fill="#9447F6" fill-opacity="0.5"/>
<path d="M37.4847 0H36.1633V1.32142H37.4847V0Z" fill="#9447F6" fill-opacity="0.5"/>
<path d="M37.4847 7.98596H36.1633V9.30738H37.4847V7.98596Z" fill="#9447F6" fill-opacity="0.5"/>
<path d="M37.4847 15.9783H36.1633V17.2997H37.4847V15.9783Z" fill="#9447F6" fill-opacity="0.5"/>
<path d="M37.4847 23.9642H36.1633V25.2856H37.4847V23.9642Z" fill="#9447F6" fill-opacity="0.5"/>
<path d="M37.4847 31.9501H36.1633V33.2716H37.4847V31.9501Z" fill="#9447F6" fill-opacity="0.5"/>
<path d="M37.4847 39.9361H36.1633V41.2575H37.4847V39.9361Z" fill="#9447F6" fill-opacity="0.5"/>
<path d="M37.4847 47.9284H36.1633V49.2499H37.4847V47.9284Z" fill="#9447F6" fill-opacity="0.5"/>
<path d="M37.4847 55.9144H36.1633V57.2358H37.4847V55.9144Z" fill="#9447F6" fill-opacity="0.5"/>
<path d="M37.4847 63.9003H36.1633V65.2217H37.4847V63.9003Z" fill="#9447F6" fill-opacity="0.5"/>
<path d="M37.4847 71.8926H36.1633V73.2141H37.4847V71.8926Z" fill="#9447F6" fill-opacity="0.5"/>
<path d="M37.4847 79.8786H36.1633V81.2H37.4847V79.8786Z" fill="#9447F6" fill-opacity="0.5"/>
<path d="M44.7174 0H43.396V1.32142H44.7174V0Z" fill="#9447F6" fill-opacity="0.5"/>
<path d="M44.7174 7.98596H43.396V9.30738H44.7174V7.98596Z" fill="#9447F6" fill-opacity="0.5"/>
<path d="M44.7174 15.9783H43.396V17.2997H44.7174V15.9783Z" fill="#9447F6" fill-opacity="0.5"/>
<path d="M44.7174 23.9642H43.396V25.2856H44.7174V23.9642Z" fill="#9447F6" fill-opacity="0.5"/>
<path d="M44.7174 31.9501H43.396V33.2716H44.7174V31.9501Z" fill="#9447F6" fill-opacity="0.5"/>
<path d="M44.7174 39.9361H43.396V41.2575H44.7174V39.9361Z" fill="#9447F6" fill-opacity="0.5"/>
<path d="M44.7174 47.9284H43.396V49.2499H44.7174V47.9284Z" fill="#9447F6" fill-opacity="0.5"/>
<path d="M44.7174 55.9144H43.396V57.2358H44.7174V55.9144Z" fill="#9447F6" fill-opacity="0.5"/>
<path d="M44.7174 63.9003H43.396V65.2217H44.7174V63.9003Z" fill="#9447F6" fill-opacity="0.5"/>
<path d="M44.7174 71.8926H43.396V73.2141H44.7174V71.8926Z" fill="#9447F6" fill-opacity="0.5"/>
<path d="M44.7174 79.8786H43.396V81.2H44.7174V79.8786Z" fill="#9447F6" fill-opacity="0.5"/>
<path d="M51.9501 0H50.6287V1.32142H51.9501V0Z" fill="#9447F6" fill-opacity="0.5"/>
<path d="M51.9501 7.98596H50.6287V9.30738H51.9501V7.98596Z" fill="#9447F6" fill-opacity="0.5"/>
<path d="M51.9501 15.9783H50.6287V17.2997H51.9501V15.9783Z" fill="#9447F6" fill-opacity="0.5"/>
<path d="M51.9501 23.9642H50.6287V25.2856H51.9501V23.9642Z" fill="#9447F6" fill-opacity="0.5"/>
<path d="M51.9501 31.9501H50.6287V33.2716H51.9501V31.9501Z" fill="#9447F6" fill-opacity="0.5"/>
<path d="M51.9501 39.9361H50.6287V41.2575H51.9501V39.9361Z" fill="#9447F6" fill-opacity="0.5"/>
<path d="M51.9501 47.9284H50.6287V49.2499H51.9501V47.9284Z" fill="#9447F6" fill-opacity="0.5"/>
<path d="M51.9501 55.9144H50.6287V57.2358H51.9501V55.9144Z" fill="#9447F6" fill-opacity="0.5"/>
<path d="M51.9501 63.9003H50.6287V65.2217H51.9501V63.9003Z" fill="#9447F6" fill-opacity="0.5"/>
<path d="M51.9501 71.8926H50.6287V73.2141H51.9501V71.8926Z" fill="#9447F6" fill-opacity="0.5"/>
<path d="M51.9501 79.8786H50.6287V81.2H51.9501V79.8786Z" fill="#9447F6" fill-opacity="0.5"/>
<path d="M59.1764 0H57.855V1.32142H59.1764V0Z" fill="#9447F6" fill-opacity="0.5"/>
<path d="M59.1764 7.98596H57.855V9.30738H59.1764V7.98596Z" fill="#9447F6" fill-opacity="0.5"/>
<path d="M59.1764 15.9783H57.855V17.2997H59.1764V15.9783Z" fill="#9447F6" fill-opacity="0.5"/>
<path d="M59.1764 23.9642H57.855V25.2856H59.1764V23.9642Z" fill="#9447F6" fill-opacity="0.5"/>
<path d="M59.1764 31.9501H57.855V33.2716H59.1764V31.9501Z" fill="#9447F6" fill-opacity="0.5"/>
<path d="M59.1764 39.9361H57.855V41.2575H59.1764V39.9361Z" fill="#9447F6" fill-opacity="0.5"/>
<path d="M59.1764 47.9284H57.855V49.2499H59.1764V47.9284Z" fill="#9447F6" fill-opacity="0.5"/>
<path d="M59.1764 55.9144H57.855V57.2358H59.1764V55.9144Z" fill="#9447F6" fill-opacity="0.5"/>
<path d="M59.1764 63.9003H57.855V65.2217H59.1764V63.9003Z" fill="#9447F6" fill-opacity="0.5"/>
<path d="M59.1764 71.8926H57.855V73.2141H59.1764V71.8926Z" fill="#9447F6" fill-opacity="0.5"/>
<path d="M59.1764 79.8786H57.855V81.2H59.1764V79.8786Z" fill="#9447F6" fill-opacity="0.5"/>
<path d="M66.4091 0H65.0876V1.32142H66.4091V0Z" fill="#9447F6" fill-opacity="0.5"/>
<path d="M66.4091 7.98596H65.0876V9.30738H66.4091V7.98596Z" fill="#9447F6" fill-opacity="0.5"/>
<path d="M66.4091 15.9783H65.0876V17.2997H66.4091V15.9783Z" fill="#9447F6" fill-opacity="0.5"/>
<path d="M66.4091 23.9642H65.0876V25.2856H66.4091V23.9642Z" fill="#9447F6" fill-opacity="0.5"/>
<path d="M66.4091 31.9501H65.0876V33.2716H66.4091V31.9501Z" fill="#9447F6" fill-opacity="0.5"/>
<path d="M66.4091 39.9361H65.0876V41.2575H66.4091V39.9361Z" fill="#9447F6" fill-opacity="0.5"/>
<path d="M66.4091 47.9284H65.0876V49.2499H66.4091V47.9284Z" fill="#9447F6" fill-opacity="0.5"/>
<path d="M66.4091 55.9144H65.0876V57.2358H66.4091V55.9144Z" fill="#9447F6" fill-opacity="0.5"/>
<path d="M66.4091 63.9003H65.0876V65.2217H66.4091V63.9003Z" fill="#9447F6" fill-opacity="0.5"/>
<path d="M66.4091 71.8926H65.0876V73.2141H66.4091V71.8926Z" fill="#9447F6" fill-opacity="0.5"/>
<path d="M66.4091 79.8786H65.0876V81.2H66.4091V79.8786Z" fill="#9447F6" fill-opacity="0.5"/>
<path d="M73.6417 0H72.3203V1.32142H73.6417V0Z" fill="#9447F6" fill-opacity="0.5"/>
<path d="M73.6417 7.98596H72.3203V9.30738H73.6417V7.98596Z" fill="#9447F6" fill-opacity="0.5"/>
<path d="M73.6417 15.9783H72.3203V17.2997H73.6417V15.9783Z" fill="#9447F6" fill-opacity="0.5"/>
<path d="M73.6417 23.9642H72.3203V25.2856H73.6417V23.9642Z" fill="#9447F6" fill-opacity="0.5"/>
<path d="M73.6417 31.9501H72.3203V33.2716H73.6417V31.9501Z" fill="#9447F6" fill-opacity="0.5"/>
<path d="M73.6417 39.9361H72.3203V41.2575H73.6417V39.9361Z" fill="#9447F6" fill-opacity="0.5"/>
<path d="M73.6417 47.9284H72.3203V49.2499H73.6417V47.9284Z" fill="#9447F6" fill-opacity="0.5"/>
<path d="M73.6417 55.9144H72.3203V57.2358H73.6417V55.9144Z" fill="#9447F6" fill-opacity="0.5"/>
<path d="M73.6417 63.9003H72.3203V65.2217H73.6417V63.9003Z" fill="#9447F6" fill-opacity="0.5"/>
<path d="M73.6417 71.8926H72.3203V73.2141H73.6417V71.8926Z" fill="#9447F6" fill-opacity="0.5"/>
<path d="M73.6417 79.8786H72.3203V81.2H73.6417V79.8786Z" fill="#9447F6" fill-opacity="0.5"/>
</svg>
