<svg width="122" height="236" viewBox="0 0 122 236" fill="none" xmlns="http://www.w3.org/2000/svg">
<path d="M0.221996 -3.13197e-05L0.743036 -3.12742e-05L0.743021 174.594C0.743018 207.879 27.8231 234.959 61.1076 234.959C94.392 234.959 121.479 207.879 121.479 174.594L121.479 0.00684169L122 0.00684173L122 174.594C122 208.167 94.6868 235.48 61.1144 235.48C27.542 235.48 0.22884 208.167 0.228843 174.594L0.228858 -3.13191e-05L0.221996 -3.13197e-05Z" fill="#9447F6" fill-opacity="0.4"/>
<path d="M9.06586 -4.76234e-05L9.58689 -4.75779e-05L9.58687 174.594C9.58687 203.004 32.6975 226.122 61.1144 226.122C89.5245 226.122 112.642 203.011 112.642 174.594L112.642 0.00682384L113.163 0.00682388L113.163 174.594C113.163 203.292 89.8124 226.643 61.1144 226.643C32.4164 226.643 9.06584 203.292 9.06584 174.594L9.06586 -4.76234e-05V-4.76234e-05Z" fill="#9447F6" fill-opacity="0.4"/>
<path d="M17.9029 -5.30692e-05L18.4239 -5.30236e-05L18.4239 174.594C18.4239 198.13 37.5719 217.278 61.1075 217.278C84.6432 217.278 103.798 198.13 103.798 174.594L103.798 0.00681685L104.319 0.00681689L104.319 174.594C104.319 198.418 84.938 217.806 61.1075 217.806C37.2839 217.806 17.896 198.425 17.896 174.594L17.896 -5.30698e-05L17.9029 -5.30692e-05Z" fill="#9447F6" fill-opacity="0.4"/>
<path d="M26.7399 -4.70294e-05L27.2609 -4.69838e-05L27.2609 174.594C27.2609 193.256 42.4463 208.441 61.1075 208.441C79.7688 208.441 94.9542 193.256 94.9542 174.594L94.9542 0.00682134L95.4752 0.00682139L95.4752 174.594C95.4752 193.544 80.0567 208.962 61.1075 208.962C42.1583 208.962 26.7399 193.544 26.7399 174.594L26.7399 -4.70294e-05Z" fill="#9447F6" fill-opacity="0.4"/>
<path d="M35.5837 -2.54603e-05L36.1048 -2.54148e-05L36.1048 174.594C36.1048 188.381 47.3207 199.597 61.1075 199.597C74.8944 199.597 86.1103 188.381 86.1103 174.594L86.1103 0.00684136L86.6314 0.00684141L86.6313 174.594C86.6313 188.669 75.1823 200.125 61.1007 200.125C47.019 200.125 35.57 188.676 35.57 174.594L35.57 -2.54615e-05L35.5837 -2.54603e-05Z" fill="#9447F6" fill-opacity="0.4"/>
</svg>
