<svg width="40" height="46" viewBox="0 0 40 46" fill="none" xmlns="http://www.w3.org/2000/svg">
<path d="M39.9801 12.518C39.9601 11.8903 39.4877 11.4556 38.8612 11.4334C38.5961 11.4234 38.33 11.4268 38.0649 11.4312C37.8132 11.4356 37.6025 11.4523 37.4672 11.1329C37.3352 10.8213 37.4639 10.6749 37.6535 10.4952C37.8576 10.3034 38.0572 10.1038 38.2446 9.89528C38.6726 9.41954 38.6904 8.79408 38.259 8.33497C37.7123 7.75387 37.1534 7.18386 36.5734 6.63714C36.0743 6.16583 35.5032 6.1736 34.982 6.62273C34.7702 6.80571 34.5772 7.01197 34.3865 7.21713C34.2179 7.39789 34.0782 7.52653 33.7854 7.40344C33.5027 7.28367 33.4638 7.11067 33.4771 6.85561C33.4905 6.57504 33.4882 6.29337 33.4771 6.0128C33.4505 5.3208 33.0158 4.88054 32.3316 4.86945C31.5642 4.85726 30.7968 4.85726 30.0294 4.86945C29.3529 4.87944 28.9027 5.32635 28.8672 6.00836C28.8517 6.30335 28.8528 6.60055 28.8661 6.89553C28.8772 7.1384 28.8284 7.29587 28.5678 7.40455C28.306 7.51323 28.163 7.43671 27.9989 7.25484C27.8015 7.03526 27.593 6.82456 27.3745 6.62716C27.0174 6.30445 26.5871 6.15696 26.1547 6.39872C25.8552 6.56728 25.6168 6.53512 25.3285 6.43642C22.6071 5.506 19.8402 5.37514 17.0512 6.05272C13.6023 6.88999 10.7922 8.74307 8.63634 11.5676C6.66904 14.1437 5.63881 17.0614 5.5379 20.3085C5.42146 24.0823 6.55925 27.4358 8.90582 30.3756C10.3475 32.1821 12.1307 33.5694 14.23 34.5365C14.4917 34.6573 14.6037 34.7971 14.5893 35.0998C14.5604 35.6898 14.5948 36.2831 14.5704 36.8731C14.5649 37.0183 14.4684 37.2146 14.3519 37.29C13.8973 37.5839 13.6134 37.9731 13.5879 38.5143C13.5624 39.0743 13.5346 39.6388 13.5812 40.1955C13.6544 41.0694 14.2632 41.5972 15.1482 41.6205C15.4509 41.6283 15.7537 41.6216 16.0841 41.6216C16.0841 42.3003 16.1219 42.908 16.0753 43.5091C16.0065 44.4085 16.3204 45.055 17.1565 45.4232C19.4 45.4232 21.6423 45.4232 23.8857 45.4232C24.7352 45.0683 25.0446 44.4184 24.9836 43.5191C24.9414 42.9058 24.9758 42.2859 24.9758 41.6227C25.3096 41.6227 25.5858 41.6272 25.8619 41.6216C26.8433 41.6028 27.4677 41.0006 27.5032 40.0247C27.5187 39.5967 27.5198 39.1664 27.5032 38.7383C27.4799 38.1306 27.2614 37.6271 26.7125 37.2911C26.5938 37.219 26.4929 37.0228 26.4862 36.8786C26.4607 36.303 26.4973 35.7253 26.4674 35.1497C26.4496 34.8181 26.5628 34.6507 26.8611 34.5132C29.2043 33.4375 31.1295 31.835 32.631 29.7446C33.1788 28.9817 33.6169 28.1366 34.0749 27.3116C34.2845 26.9356 34.1558 26.5674 33.8287 26.3944C33.5193 26.2303 33.1589 26.3279 32.9471 26.6528C32.8339 26.8247 32.7463 27.0133 32.6521 27.1973C31.6529 29.1369 30.2656 30.7471 28.5023 32.0202C27.8891 32.4627 27.2193 32.8264 26.5018 33.2722C26.5018 31.9892 26.5018 30.8314 26.5018 29.6759C27.4732 29.4818 27.7383 29.1536 27.7394 28.1588C27.7405 27.7296 27.7505 27.3005 27.7349 26.8724C27.7094 26.1305 27.2803 25.7047 26.5339 25.6836C26.0327 25.6692 25.5303 25.6681 25.0291 25.6847C24.2905 25.708 23.8635 26.1416 23.8358 26.8857C23.8214 27.2849 23.8325 27.6842 23.8325 28.0834C23.8336 29.168 24.0753 29.4718 25.1111 29.6836C25.1111 32.1411 25.1111 34.5997 25.1111 37.0494C24.7884 37.0494 24.5023 37.0494 24.1829 37.0494C24.1829 36.8575 24.1829 36.6967 24.1829 36.5359C24.1829 35.1309 24.1641 33.7269 24.1907 32.3219C24.2051 31.5744 23.9478 30.99 23.4199 30.4688C21.9395 29.005 20.4823 27.5156 19.0163 26.0363C18.9054 25.9242 18.8011 25.8078 18.698 25.6969C19.3889 24.8718 19.3656 24.3928 18.6248 23.6431C18.3342 23.3492 18.0526 23.0443 17.7498 22.7637C17.1931 22.2491 16.6131 22.2503 16.0642 22.7704C15.6783 23.1363 15.3045 23.5145 14.9408 23.9026C14.4762 24.3983 14.4872 25.026 14.9574 25.5283C15.2103 25.7978 15.4753 26.0551 15.7348 26.3179C16.5499 27.1419 16.7329 27.1763 17.762 26.6961C17.7875 26.7094 17.8186 26.7183 17.8385 26.7382C19.4299 28.3429 21.0246 29.9442 22.6004 31.5633C22.7468 31.713 22.84 31.9803 22.8422 32.1943C22.8621 33.7314 22.8533 35.2695 22.851 36.8076C22.851 36.8897 22.8289 36.9729 22.8167 37.0549C22.3653 37.0549 21.945 37.0549 21.4903 37.0549C21.4903 35.9382 21.4903 34.847 21.4903 33.7558C21.4903 33.046 21.497 32.3363 21.487 31.6265C21.4804 31.1375 21.2253 30.8469 20.8283 30.8425C20.4257 30.8381 20.1773 31.1231 20.1618 31.6121C20.1585 31.7153 20.1607 31.8195 20.1607 31.9226C20.1607 33.4752 20.1607 35.0277 20.1607 36.5803C20.1607 36.7366 20.1607 36.8941 20.1607 37.0538C19.4609 37.0538 18.82 37.0538 18.1723 37.0538C18.1723 35.468 18.1723 33.9099 18.1723 32.3585C19.0418 32.1921 19.4033 31.8727 19.4332 31.2085C19.4587 30.6329 19.4587 30.0551 19.4332 29.4796C19.4033 28.8242 18.9408 28.3928 18.2821 28.3795C17.7365 28.3684 17.1898 28.3662 16.6442 28.3817C16.0121 28.3995 15.5652 28.8442 15.5474 29.4785C15.5308 30.0696 15.5308 30.6617 15.5496 31.2528C15.5674 31.8084 15.9555 32.2143 16.5044 32.303C16.6009 32.3185 16.6974 32.3429 16.7761 32.3596C16.7761 33.9487 16.7761 35.5068 16.7761 37.0483C16.4678 37.0483 16.1962 37.0483 15.9067 37.0483C15.9067 36.2897 15.8601 35.5623 15.92 34.8436C15.9821 34.0884 15.6805 33.7136 14.9929 33.4131C12.1972 32.191 10.0469 30.2115 8.58755 27.5334C6.50824 23.7185 6.26538 19.7373 7.81904 15.6918C9.04112 12.508 11.2224 10.1226 14.2311 8.52238C16.8416 7.13396 19.6306 6.70479 22.5461 7.11511C23.278 7.21824 23.9944 7.42894 24.7185 7.59085C24.7363 7.64408 24.7529 7.69731 24.7707 7.75165C24.5677 7.92243 24.3482 8.07658 24.1641 8.2651C23.6562 8.78964 23.6606 9.42064 24.163 9.95849C24.3448 10.1526 24.5267 10.3477 24.7263 10.523C24.927 10.6993 24.9847 10.859 24.8805 11.1351C24.7673 11.4345 24.5755 11.439 24.3304 11.4323C24.0354 11.4234 23.7393 11.4223 23.4455 11.4367C22.8688 11.4645 22.3975 11.9069 22.3831 12.4792C22.3609 13.3209 22.362 14.1648 22.382 15.0065C22.3953 15.5832 22.8599 16.0323 23.4333 16.0611C23.7427 16.0766 24.0532 16.0744 24.3626 16.0644C24.5954 16.0578 24.7673 16.0744 24.8749 16.3483C24.9803 16.6156 24.9414 16.7819 24.7374 16.9638C24.5067 17.1701 24.2894 17.3941 24.0853 17.627C23.6861 18.085 23.6794 18.716 24.0942 19.1573C24.6409 19.7384 25.1987 20.3085 25.7787 20.8563C26.2899 21.3398 26.8755 21.3209 27.4 20.843C27.6285 20.6345 27.8214 20.3805 28.0665 20.1964C28.1863 20.1066 28.4147 20.0645 28.5478 20.1177C28.682 20.1721 28.8273 20.3606 28.8472 20.507C28.8927 20.8408 28.8472 21.1868 28.8683 21.525C28.9104 22.1815 29.3662 22.6195 30.0194 22.6273C30.8012 22.6373 31.5841 22.6395 32.366 22.6262C32.997 22.6151 33.4372 22.1737 33.4727 21.5372C33.4871 21.2721 33.4794 21.0049 33.4794 20.7387C33.4805 20.1565 33.5026 20.1321 34.1669 20.0301C34.1858 20.1865 34.2257 20.3428 34.2201 20.4981C34.1913 21.1768 34.1525 21.8555 34.1115 22.533C34.0837 22.9955 34.29 23.3049 34.6682 23.3526C35.0807 23.4047 35.3646 23.1596 35.42 22.6772C35.4755 22.197 35.5077 21.7146 35.5409 21.3409C35.9357 21.1612 36.305 21.0836 36.5512 20.8652C37.1578 20.3273 37.7211 19.7373 38.2745 19.144C38.6882 18.7005 38.6682 18.0739 38.2612 17.6181C38.0549 17.3874 37.8365 17.1645 37.6091 16.9549C37.4306 16.7897 37.353 16.6467 37.4628 16.386C37.577 16.1155 37.7322 16.0434 38.0006 16.0633C38.279 16.0844 38.5606 16.0733 38.8412 16.0656C39.4944 16.0478 39.9657 15.612 39.9845 14.9588C40.0045 14.1448 40.0067 13.3309 39.9801 12.518ZM16.8826 25.5405C16.6264 25.2589 16.3536 24.9606 16.0764 24.6556C16.3181 24.4161 16.5976 24.1377 16.887 23.8516C17.1987 24.1433 17.487 24.4127 17.7864 24.6922C17.4726 24.9872 17.1842 25.2578 16.8826 25.5405ZM23.1261 44.0924C21.3883 44.0924 19.6495 44.0935 17.9117 44.0924C17.3694 44.0924 17.3694 44.0913 17.457 43.4814C19.4942 43.4814 21.5358 43.4814 23.5752 43.4814C23.7205 44.0514 23.6905 44.0924 23.1261 44.0924ZM17.4415 42.1007C17.4415 41.951 17.4415 41.8124 17.4415 41.6483C19.4942 41.6483 21.5369 41.6483 23.6118 41.6483C23.6118 41.8002 23.6118 41.9377 23.6118 42.1007C21.5569 42.1007 19.5142 42.1007 17.4415 42.1007ZM25.1754 27.2583C25.1843 27.1696 25.3451 27.0377 25.446 27.0266C25.7355 26.9955 26.0304 27.0155 26.3654 27.0155C26.3654 27.4413 26.3654 27.8428 26.3654 28.2819C25.9617 28.2819 25.5858 28.2819 25.1621 28.2819C25.1621 27.927 25.1422 27.5899 25.1754 27.2583ZM16.8893 29.7358C17.2974 29.7358 17.6833 29.7358 18.0903 29.7358C18.0903 30.1527 18.0903 30.5409 18.0903 30.9578C17.691 30.9578 17.3162 30.9578 16.8893 30.9578C16.8893 30.5387 16.8893 30.1494 16.8893 29.7358ZM16.2028 38.4145C19.3279 38.4145 22.4518 38.4145 25.5769 38.4145C26.1624 38.4145 26.1746 38.4278 26.1768 39.0089C26.1824 40.292 26.1824 40.292 24.8993 40.292C23.4399 40.292 21.9805 40.292 20.5222 40.292C18.8122 40.292 17.1033 40.2831 15.3933 40.2986C15.0096 40.302 14.8776 40.1755 14.8743 39.7918C14.861 38.4145 14.851 38.4145 16.2028 38.4145ZM38.6394 14.737C37.6524 14.7026 36.7064 14.6672 36.2163 15.8748C35.7283 17.078 36.437 17.6935 37.1511 18.3733C36.6643 18.8369 36.2074 19.2727 35.7206 19.7362C35.0896 19.0775 34.4952 18.3301 33.2831 18.8424C32.1009 19.3414 32.1109 20.2541 32.1519 21.271C31.4877 21.271 30.8633 21.271 30.1702 21.271C30.3166 20.1088 30.1469 19.1695 28.8306 18.7515C27.7061 18.3944 27.2281 19.1928 26.6038 19.7562C26.1402 19.2982 25.69 18.8535 25.2009 18.37C25.8952 17.7046 26.5938 17.1224 26.1713 15.9713C25.7199 14.7426 24.8095 14.6472 23.7293 14.7514C23.7293 14.0739 23.7293 13.4462 23.7293 12.7564C24.7163 12.7985 25.6445 12.8241 26.128 11.6364C26.6138 10.4431 25.9462 9.80656 25.1965 9.12677C25.6833 8.67098 26.1436 8.24071 26.6437 7.77383C27.2603 8.40261 27.848 9.16115 29.0535 8.66211C30.2434 8.16973 30.2467 7.26814 30.178 6.23459C30.8445 6.23459 31.4677 6.23459 32.153 6.23459C32.1231 7.2127 32.0765 8.14755 33.2609 8.64437C34.4586 9.14784 35.0851 8.47692 35.7361 7.71949C36.2052 8.20522 36.6432 8.65768 37.1212 9.15227C36.4481 9.7988 35.7117 10.4209 36.2229 11.6352C36.7198 12.813 37.6347 12.8041 38.6394 12.7553C38.6394 13.4295 38.6394 14.045 38.6394 14.737Z" fill="#9447F6"/>
<path d="M20.1641 2.39204C20.1719 2.87554 20.4291 3.17829 20.8173 3.18162C21.2032 3.18495 21.476 2.87887 21.4882 2.40202C21.4993 1.93071 21.4749 1.45718 21.496 0.985869C21.5148 0.572226 21.4139 0.232883 21.0524 0C20.9049 0 20.7574 0 20.6099 0C20.2606 0.21403 20.1364 0.52454 20.1563 0.93153C20.1807 1.41726 20.1563 1.9052 20.1641 2.39204Z" fill="#9447F6"/>
<path d="M20.162 25.6381C20.162 26.3323 20.3605 26.6362 20.8129 26.6417C21.2776 26.6473 21.4905 26.3257 21.4905 25.6115C21.4905 24.6666 21.4905 23.7218 21.4905 22.777C21.4905 22.4875 21.4905 22.1981 21.4905 21.9242C22.5484 21.6835 22.7691 21.4041 22.7691 20.3561C22.7691 19.9136 22.7813 19.47 22.7614 19.0276C22.7314 18.3711 22.279 17.9363 21.6213 17.9219C21.1201 17.9108 20.6188 17.9153 20.1187 17.9197C19.3402 17.9264 18.8878 18.3677 18.8645 19.1495C18.8534 19.5033 18.8622 19.8582 18.8622 20.213C18.8622 21.4207 19.0086 21.6192 20.1631 21.9364C20.1631 22.0706 20.1631 22.2147 20.1631 22.36C20.162 23.4523 20.162 24.5447 20.162 25.6381ZM20.213 19.276C20.6421 19.276 21.0203 19.276 21.4184 19.276C21.4184 19.694 21.4184 20.0866 21.4184 20.5114C21.0092 20.5114 20.6222 20.5114 20.213 20.5114C20.213 20.0877 20.213 19.6963 20.213 19.276Z" fill="#9447F6"/>
<path d="M15.4442 16.416C15.2091 16.4116 14.9729 16.4149 14.7378 16.4149C14.5027 16.4149 14.2665 16.4127 14.0314 16.4149C13.2463 16.4238 12.7938 16.8552 12.7716 17.6337C12.7572 18.1349 12.7583 18.6373 12.7716 19.1385C12.7916 19.9082 13.2197 20.3462 13.976 20.3695C14.4761 20.385 14.9774 20.3861 15.4775 20.3684C16.215 20.344 16.6464 19.9115 16.6696 19.1707C16.6863 18.655 16.6852 18.1383 16.6696 17.6215C16.6475 16.8641 16.1972 16.4293 15.4442 16.416ZM15.3189 19.0166C14.9031 19.0166 14.5282 19.0166 14.1246 19.0166C14.1246 18.5974 14.1246 18.2059 14.1246 17.7801C14.5182 17.7801 14.9053 17.7801 15.3189 17.7801C15.3189 18.1804 15.3189 18.573 15.3189 19.0166Z" fill="#9447F6"/>
<path d="M17.7169 15.2649C17.982 15.2649 18.247 15.2693 18.512 15.2638C19.214 15.2505 19.6798 14.8124 19.7042 14.1138C19.723 13.5693 19.7219 13.0226 19.7042 12.477C19.6809 11.7938 19.2373 11.3491 18.5586 11.327C18.0296 11.3092 17.4984 11.3103 16.9695 11.3247C16.2542 11.3447 15.825 11.7816 15.8106 12.4947C15.8006 12.9959 15.804 13.4972 15.8095 13.9984C15.8184 14.8335 16.2531 15.2582 17.0992 15.2638C17.3055 15.2671 17.5106 15.266 17.7169 15.2649ZM17.1713 12.681C17.5572 12.681 17.9321 12.681 18.3435 12.681C18.3435 13.0869 18.3435 13.4861 18.3435 13.9108C17.9576 13.9108 17.5816 13.9108 17.1713 13.9108C17.1713 13.5094 17.1713 13.1091 17.1713 12.681Z" fill="#9447F6"/>
<path d="M2.36422 19.9314C2.76567 19.9547 3.08283 19.7251 3.14161 19.3681C3.19927 19.0154 2.96195 18.6872 2.55607 18.625C1.96167 18.5341 1.36394 18.462 0.765096 18.4066C0.362542 18.37 0.0520315 18.625 0.00545504 18.9855C-0.0400125 19.3337 0.201742 19.6453 0.618712 19.7107C1.19648 19.8017 1.78202 19.8593 2.36422 19.9314Z" fill="#9447F6"/>
<path d="M10.0405 6.02612C10.2878 6.37766 10.6637 6.45418 10.9621 6.259C11.2814 6.04941 11.3602 5.66571 11.1273 5.28644C10.8268 4.7985 10.5196 4.31388 10.1813 3.85144C10.0549 3.67844 9.83535 3.57309 9.74663 3.50544C9.08791 3.4999 8.77851 4.03331 9.05575 4.51128C9.35739 5.03249 9.69451 5.53374 10.0405 6.02612Z" fill="#9447F6"/>
<path d="M1.91962 13.9031C2.43751 14.146 2.96759 14.3634 3.49546 14.5851C3.60192 14.6295 3.72058 14.6439 3.96234 14.7038C4.10206 14.5596 4.34604 14.4055 4.44473 14.1848C4.59001 13.8599 4.41479 13.5682 4.10539 13.4196C3.56311 13.1601 3.00973 12.9206 2.45303 12.6966C2.04161 12.5313 1.6812 12.6788 1.5337 13.0337C1.39286 13.373 1.53149 13.7202 1.91962 13.9031Z" fill="#9447F6"/>
<path d="M3.34106 24.5825C3.27452 24.211 3.01059 24.0036 2.64685 24.0535C1.99478 24.1411 1.34271 24.2587 0.702836 24.4106C0.342423 24.496 0.183841 24.7976 0.258142 25.1636C0.329115 25.5118 0.58085 25.6726 1.0078 25.6815C1.58114 25.575 2.23432 25.4752 2.87641 25.3244C3.23571 25.2401 3.4076 24.9529 3.34106 24.5825Z" fill="#9447F6"/>
<path d="M15.6873 3.95897C15.8892 3.84364 16.1409 3.51649 16.1054 3.33573C15.9679 2.63265 15.7528 1.94065 15.5099 1.26529C15.4001 0.959221 15.0685 0.832799 14.7713 0.976964C14.554 1.08232 14.4032 1.32407 14.2246 1.5015C14.4819 2.3055 14.6804 3.01302 14.941 3.69725C15.0619 4.01109 15.4167 4.11422 15.6873 3.95897Z" fill="#9447F6"/>
<path d="M6.33427 9.92742C6.73017 10.2058 7.26136 9.84314 7.26247 9.282C7.2414 9.22544 7.2292 9.06464 7.14381 8.98813C6.60375 8.51016 6.0659 8.02665 5.48813 7.59637C5.23085 7.40452 4.90703 7.49213 4.70076 7.75939C4.49893 8.02 4.46566 8.34493 4.70742 8.57005C5.22309 9.05134 5.75761 9.52265 6.33427 9.92742Z" fill="#9447F6"/>
<path d="M4.30179 29.2267C3.65305 29.4896 3.01872 29.809 2.42875 30.186C2.26795 30.2891 2.19698 30.6861 2.24356 30.9168C2.28126 31.102 2.5585 31.2395 2.79804 31.4624C3.57321 31.0188 4.30623 30.6329 4.99157 30.1738C5.10247 30.0995 5.08805 29.6371 4.96828 29.4718C4.84851 29.3055 4.47368 29.1569 4.30179 29.2267Z" fill="#9447F6"/>
<path d="M7.91881 33.6959C7.68815 33.6304 7.33994 33.6582 7.16028 33.7979C6.68676 34.1639 6.26646 34.603 5.84394 35.0311C5.57335 35.305 5.53676 35.6321 5.78738 35.9449C6.02359 36.2398 6.41062 36.2753 6.72668 35.9981C7.19022 35.5922 7.63159 35.1597 8.06409 34.7206C8.17942 34.603 8.22932 34.4211 8.34244 34.2071C8.19938 34.0241 8.09181 33.7447 7.91881 33.6959Z" fill="#9447F6"/>
<path d="M34.7362 11.8825C34.3824 11.9679 34.1939 12.2984 34.2682 12.7121C34.2915 12.8429 34.3292 12.9704 34.3569 13.1002C34.6697 14.554 33.9111 16.0611 32.5305 16.732C31.2319 17.363 29.6084 16.976 28.6602 15.8105C27.7264 14.6616 27.6799 12.9283 28.5826 11.785C29.4986 10.6261 30.6841 10.2313 32.1213 10.6039C32.638 10.7381 32.9885 10.5828 33.0949 10.1936C33.2114 9.76997 32.9852 9.46168 32.4517 9.31751C29.472 8.51351 26.6153 10.6682 26.6031 13.729C26.5953 15.663 27.8318 17.4418 29.6383 18.095C32.0015 18.95 34.6231 17.6935 35.487 15.2926C35.8285 14.3433 35.8308 13.3841 35.5602 12.4193C35.4415 11.9912 35.1243 11.7894 34.7362 11.8825Z" fill="#9447F6"/>
<path d="M31.1887 11.4245C29.9045 11.4179 28.8476 12.4758 28.8565 13.76C28.8654 15.0342 29.8978 16.0678 31.1654 16.0733C32.4562 16.0788 33.4997 15.0309 33.4898 13.7389C33.4809 12.4547 32.4617 11.4301 31.1887 11.4245ZM31.162 14.737C30.6286 14.7292 30.1795 14.2635 30.1917 13.7323C30.2039 13.1933 30.6608 12.7486 31.1931 12.7564C31.7332 12.7641 32.1612 13.2122 32.1523 13.7633C32.1446 14.3156 31.7076 14.7448 31.162 14.737Z" fill="#9447F6"/>
</svg>
