<svg width="77" height="100" viewBox="0 0 77 100" fill="none" xmlns="http://www.w3.org/2000/svg">
<path d="M76.9602 6.4413C76.9602 2.56476 74.4088 0.00562098 70.5506 0.00301228C54.374 -0.00220514 38.1974 0.000403568 22.0208 0.00301228C20.4764 0.00301228 20.0825 0.404739 20.0825 1.97779C20.0799 8.09521 20.0825 14.2126 20.0825 20.3327C20.0825 20.7135 20.0825 21.0944 20.0825 21.5953C19.5921 21.5953 19.2086 21.5953 18.8251 21.5953C14.7555 21.5953 10.6885 21.5927 6.61895 21.5953C2.46588 21.6005 0.00326088 24.0605 0.00326088 28.2084C0.000652177 38.2623 0.000652177 48.3189 0.000652177 58.3755C0.000652177 70.1225 -0.00195653 81.8721 0.00326088 93.6191C0.00586959 96.7939 1.6911 98.9956 4.73024 99.8383C4.85285 99.8722 4.96242 99.9452 5.07981 100C20.706 100 36.3321 100 51.9609 100C52.0079 99.9557 52.0444 99.8904 52.0992 99.8722C55.5583 98.7087 56.8809 96.8696 56.8835 93.2069C56.8861 88.6521 56.8835 84.0947 56.8861 79.5399C56.8861 79.1955 56.9148 78.8512 56.9357 78.4051C57.4053 78.4051 57.7888 78.4051 58.1722 78.4051C62.307 78.4051 66.4392 78.4208 70.574 78.3999C74.4532 78.3816 76.9628 75.8434 76.9628 71.9512C76.9654 50.1137 76.9654 28.2788 76.9602 6.4413ZM22.8582 3.88737C32.1556 9.77261 41.3174 15.5718 50.7113 21.517C41.2548 21.517 32.0773 21.517 22.8582 21.517C22.8582 15.6839 22.8582 9.89783 22.8582 3.88737ZM54.1496 25.6231C54.1496 48.1415 54.1496 70.6572 54.1496 93.1756C54.1496 96.0921 52.9835 97.2635 50.0826 97.2635C35.633 97.2635 21.1834 97.2635 6.73373 97.2635C3.96589 97.2635 2.7398 96.04 2.7398 93.2878C2.7398 71.6173 2.7398 49.9441 2.7398 28.2736C2.7398 25.5631 3.96067 24.3318 6.65808 24.3318C22.0834 24.3292 37.5113 24.3318 52.9366 24.3318C53.2913 24.3318 53.6461 24.3318 54.1522 24.3318C54.1496 24.8562 54.1496 25.2396 54.1496 25.6231ZM70.5688 75.666C66.3375 75.679 62.1088 75.6712 57.8775 75.6686C57.5905 75.6686 57.3009 75.6425 56.8835 75.6216C56.8835 75.0738 56.8835 74.6564 56.8835 74.2364C56.8835 57.4468 56.8705 40.6571 56.907 23.8701C56.9096 22.6466 56.5157 21.9161 55.48 21.2666C46.0887 15.3735 36.7287 9.43349 27.3582 3.50389C27.0634 3.31607 26.7738 3.11781 26.3016 2.80737C26.7712 2.77607 27.0399 2.73954 27.3112 2.73954C41.6956 2.73694 56.0774 2.73694 70.4619 2.73954C72.901 2.73954 74.2262 4.0439 74.2262 6.45434C74.2288 28.2866 74.2288 50.1189 74.2262 71.9512C74.2262 74.3329 72.9297 75.6581 70.5688 75.666Z" fill="#5C6680"/>
<path d="M48.627 27.8458C41.9253 27.8432 35.2209 27.8458 28.5191 27.8458C21.7521 27.8458 14.9825 27.8432 8.21554 27.8484C6.63205 27.8484 6.25379 28.2292 6.25379 29.7971C6.25118 37.8006 6.25118 45.8041 6.25379 53.805C6.25379 55.3572 6.65553 55.7694 8.22075 55.772C21.6921 55.7772 35.1609 55.7772 48.6323 55.772C50.2705 55.772 50.6331 55.3989 50.6331 53.7502C50.6357 45.7806 50.6357 37.8084 50.6331 29.8388C50.6305 28.1692 50.307 27.8484 48.627 27.8458ZM9.05293 30.6397C21.9843 30.6397 34.887 30.6397 47.8418 30.6397C47.8418 35.0119 47.8418 39.3241 47.8418 43.7667C46.3131 43.0493 44.8496 42.3658 43.3888 41.6823C42.4183 41.2284 41.4348 40.7928 40.4774 40.3128C39.7705 39.958 39.147 40.0023 38.4583 40.4067C35.4009 42.1989 32.3122 43.9389 29.2574 45.7337C28.6887 46.0676 28.2713 46.1015 27.6765 45.7493C24.7678 44.025 21.8017 42.3971 18.9086 40.6493C17.8651 40.018 17.0017 39.9919 15.9217 40.545C13.699 41.6797 11.4112 42.6815 9.05554 43.7824C9.05293 39.3502 9.05293 35.0223 9.05293 30.6397ZM47.8966 52.9598C34.9052 52.9598 21.9817 52.9598 8.98771 52.9598C8.98771 51.0372 8.96945 49.1537 9.01119 47.2728C9.01641 47.038 9.30076 46.7119 9.53815 46.5972C11.9669 45.4285 14.406 44.278 16.8686 43.1797C17.1686 43.0467 17.6825 43.1563 17.9956 43.3337C21.0817 45.0737 24.16 46.8267 27.2043 48.6346C28.1069 49.172 28.853 49.1406 29.7348 48.6189C32.787 46.8189 35.8574 45.0554 38.9513 43.3284C39.2983 43.1354 39.8931 43.1041 40.2557 43.2632C42.6009 44.3041 44.9201 45.4024 47.2288 46.5241C47.5157 46.6624 47.8601 47.0459 47.8705 47.3276C47.9227 49.1772 47.8966 51.0268 47.8966 52.9598Z" fill="#5C6680"/>
<path d="M49.5088 88.9025C49.1984 88.8321 48.8619 88.866 48.5358 88.866C41.8653 88.8634 35.1975 88.866 28.527 88.866C21.8252 88.866 15.1235 88.866 8.42168 88.866C8.09559 88.866 7.76429 88.8347 7.44863 88.8921C6.72341 89.0251 6.27471 89.4764 6.27211 90.2277C6.2695 90.9791 6.71298 91.4304 7.43559 91.5738C7.71733 91.6286 8.01994 91.5999 8.31212 91.5999C21.747 91.5999 35.1844 91.5999 48.6193 91.5999C48.9114 91.5999 49.214 91.6312 49.4958 91.5686C50.1688 91.4225 50.5914 91.0104 50.6149 90.2904C50.641 89.5234 50.2236 89.0669 49.5088 88.9025Z" fill="#5C6680"/>
<path d="M8.01991 77.8938C8.15035 77.8964 8.28078 77.8938 8.41122 77.8938C21.7808 77.8938 35.1531 77.8938 48.5227 77.8886C48.9401 77.8886 49.4801 77.9564 49.7436 77.7321C50.1349 77.4008 50.5862 76.8138 50.5419 76.3834C50.5001 75.9555 49.9262 75.5121 49.4879 75.2199C49.2349 75.0529 48.7914 75.1625 48.434 75.1625C41.7662 75.1599 35.0957 75.1625 28.4278 75.1625C21.6295 75.1625 14.8286 75.1599 8.03035 75.1651C6.8773 75.1651 6.26164 75.6503 6.25903 76.5138C6.25903 77.3669 6.90338 77.8729 8.01991 77.8938Z" fill="#5C6680"/>
<path d="M49.6707 64.039C50.0724 63.7103 50.5654 63.1703 50.5472 62.7372C50.5289 62.3094 49.9863 61.8294 49.5637 61.5163C49.3263 61.3389 48.8724 61.4381 48.515 61.4381C41.8471 61.4355 35.1793 61.4355 28.5114 61.4355C21.8436 61.4355 15.1757 61.4355 8.50785 61.4355C8.15046 61.4355 7.79046 61.425 7.43567 61.4694C6.72611 61.5607 6.31654 62.0068 6.2748 62.7007C6.23045 63.4416 6.61654 63.9424 7.36002 64.0963C7.67568 64.1616 8.00698 64.1642 8.33046 64.1642C21.7314 64.1668 35.1323 64.1668 48.5359 64.1616C48.922 64.1668 49.4202 64.2424 49.6707 64.039Z" fill="#5C6680"/>
<path d="M47.3695 82.0312C47.1112 82.0025 46.8504 82.0155 46.5895 82.0155C34.4903 82.0155 22.3911 82.0155 10.2919 82.0155C9.99974 82.0155 9.69974 81.9947 9.41539 82.0416C8.71365 82.1616 8.218 82.6495 8.3093 83.3016C8.37713 83.7843 8.82322 84.2747 9.22235 84.6243C9.43626 84.8121 9.90583 84.7416 10.258 84.7416C16.3076 84.7469 22.3572 84.7469 28.4068 84.7469C34.4564 84.7469 40.506 84.7469 46.5556 84.7469C46.8478 84.7469 47.1504 84.7782 47.4321 84.7208C48.1938 84.5643 48.666 84.0921 48.6165 83.2938C48.5721 82.5582 48.1208 82.1147 47.3695 82.0312Z" fill="#5C6680"/>
<path d="M47.4504 68.3329C47.0982 68.2885 46.7356 68.2964 46.3782 68.2964C40.3939 68.2938 34.4121 68.2937 28.4277 68.2937C22.4433 68.2937 16.4616 68.2938 10.4772 68.2964C10.0885 68.2964 9.60328 68.192 9.33197 68.3798C8.89893 68.6798 8.37979 69.1598 8.33023 69.6111C8.28588 70.0077 8.7711 70.5399 9.14675 70.8738C9.36588 71.0668 9.82763 71.0225 10.1798 71.0225C22.3729 71.0277 34.5686 71.0277 46.7617 71.0251C47.02 71.0251 47.2861 71.0251 47.5365 70.9677C48.2669 70.7955 48.6661 70.3051 48.6139 69.5616C48.5696 68.8703 48.1626 68.4216 47.4504 68.3329Z" fill="#5C6680"/>
<path d="M28.438 41.9197C30.8197 41.9067 32.698 40.0023 32.6823 37.618C32.6641 35.2806 30.7884 33.4101 28.4562 33.4049C26.0849 33.4023 24.2014 35.3067 24.2093 37.6988C24.2145 40.0102 26.1397 41.9328 28.438 41.9197ZM28.4093 36.1388C29.218 36.1154 29.9041 36.7545 29.9458 37.571C29.9901 38.4423 29.3432 39.1545 28.4875 39.178C27.6762 39.2015 26.9875 38.5623 26.9458 37.7458C26.9014 36.8849 27.5588 36.1649 28.4093 36.1388Z" fill="#5C6680"/>
</svg>
