<svg width="71" height="100" viewBox="0 0 71 100" fill="none" xmlns="http://www.w3.org/2000/svg">
<path d="M70.1755 66.191C70.1755 64.8682 69.6706 64.2147 68.6903 64.2343C67.7451 64.2538 67.252 64.9015 67.2481 66.1578C67.2422 68.8268 67.2462 71.4958 67.2462 74.1648C67.2462 75.0669 67.2462 75.969 67.2462 76.9024C45.7746 76.9024 24.4106 76.9024 2.74926 76.9024C3.01538 76.1138 3.04865 75.2724 3.48696 74.8262C8.27516 69.948 13.124 65.1324 17.9631 60.3051C18.1588 60.1094 18.4405 59.8531 18.6695 59.8648C20.094 59.9392 21.0196 59.1291 21.949 58.2172C24.1191 56.0882 26.4692 54.1882 29.3202 53.024C31.0186 52.3313 32.7406 52.0612 34.5389 52.7539C36.979 53.6951 39.0785 52.8811 40.2761 50.5702C41.4717 48.2612 42.6359 45.9366 43.8139 43.6198C44.1681 42.9251 44.5497 42.2422 44.8706 41.5319C45.2482 40.6905 44.9782 39.8725 44.262 39.5125C43.5458 39.1525 42.726 39.4323 42.2681 40.2013C42.1526 40.397 42.0646 40.6083 41.9609 40.8098C40.5735 43.5317 39.1901 46.2555 37.7988 48.9754C37.1492 50.2434 36.6932 50.3628 35.3783 49.9832C34.3608 49.6877 33.2885 49.4587 32.2358 49.4392C29.8896 49.3981 27.7156 50.2004 25.8313 51.5075C23.6495 53.02 21.634 54.7733 19.5677 56.4502C19.1509 56.7888 18.8593 57.0823 18.3545 56.5677C16.4153 54.5952 14.4409 52.658 12.5076 50.6778C12.3413 50.5076 12.2552 50.0536 12.3628 49.856C13.4449 47.8698 13.535 45.782 13.2336 43.5963C13.1671 43.111 13.4567 42.4046 13.8245 42.0661C14.6483 41.3088 15.6267 40.7198 16.5308 40.0702C18.8397 42.569 21.3679 43.0973 23.6847 41.6023C24.7335 40.9253 25.4595 39.986 25.8195 38.7865C26.3302 37.0861 25.9585 35.5246 24.9468 34.0453C25.6865 33.517 26.3615 33.0356 27.021 32.564C29.3671 34.9728 31.8992 35.4268 34.1612 33.9103C36.5015 32.341 36.9574 29.9341 35.5211 26.4863C36.1806 26.0128 36.8537 25.5295 37.5112 25.0579C39.873 27.3395 42.3072 27.7445 44.5223 26.2867C46.8332 24.7663 47.3165 22.4573 46.0192 19.0076C46.7804 18.4714 47.5552 17.9353 48.3203 17.3874C49.9386 16.2309 51.6664 16.1879 53.3962 17.0195C55.1788 17.8766 56.167 19.3578 56.2785 21.34C56.439 24.1656 54.6231 26.4002 51.7956 26.7838C49.739 27.0636 48.3223 28.0752 47.4613 29.9596C46.8665 31.2589 46.164 32.5073 45.528 33.789C45.0291 34.7967 45.2424 35.6655 46.0485 36.0451C46.8449 36.4189 47.614 36.094 48.1129 35.1372C48.788 33.8398 49.4729 32.5464 50.0932 31.2237C50.5374 30.2746 51.2046 29.805 52.2613 29.6817C55.5095 29.306 58.2568 26.7994 59.0141 23.6118C59.8066 20.2795 58.5073 16.8825 55.7032 14.9629C52.9363 13.0668 49.4044 13.0727 46.6434 14.9825C45.894 15.5011 45.1269 15.9961 44.4146 16.5636C43.8374 17.0234 43.2895 17.1193 42.5498 16.9784C39.9728 16.4853 37.2881 18.0977 36.8322 20.6356C36.5915 21.9721 35.9223 22.6765 34.9146 23.3066C34.5017 23.5649 34.0947 23.8427 33.7288 24.1636C33.2259 24.6059 32.7015 24.692 32.0342 24.6C29.5432 24.2556 27.0953 25.5843 26.5533 27.9441C26.2011 29.4841 25.299 30.2394 24.168 30.9908C23.8706 31.1884 23.5634 31.3822 23.2992 31.6189C22.7043 32.1492 22.0606 32.2862 21.2505 32.2236C18.9591 32.0416 16.7793 33.2646 16.2275 35.4111C15.8361 36.9335 14.8929 37.6731 13.7756 38.4402C13.1866 38.8452 12.5898 39.2464 12.0361 39.6984C10.6429 40.8353 10.0284 42.2931 10.3161 44.0992C10.5744 45.7115 10.5137 47.273 9.6175 48.721C9.43552 49.0165 9.22616 49.4235 9.29269 49.7229C9.60382 51.1533 8.57063 51.8264 7.76641 52.6346C6.41428 53.9984 5.05434 55.3545 3.69243 56.7085C3.49871 56.9003 3.28347 57.0705 2.95865 57.3562C2.95865 56.9629 2.95865 56.7438 2.95865 56.5226C2.95865 39.0448 2.9645 21.567 2.94102 4.08921C2.93906 3.18909 3.2052 2.91319 4.10922 2.91906C10.3904 2.95233 16.6716 2.93667 22.9528 2.93667C23.2777 2.93667 23.6866 3.04625 23.9117 2.89167C24.3813 2.56684 24.9879 2.15592 25.0955 1.67847C25.1894 1.26168 24.7726 0.61595 24.4067 0.244164C24.17 0.0034824 23.6182 0.0171798 23.2072 0.0171798C16.8615 0.00543918 10.5137 0.00739595 4.16791 0.00935271C1.26016 0.00935271 0.0313104 1.24798 0.0313104 4.1753C0.0313104 34.6069 0.045025 65.0385 1.94088e-05 95.4701C-0.00389412 97.5873 0.583136 99.1292 2.56925 100C24.2463 100 45.9253 100 67.6023 100C69.5688 99.1742 70.2067 97.691 70.1911 95.5875C70.1363 85.7841 70.1774 75.9885 70.1755 66.191ZM41.7358 19.7883C42.8981 19.7922 43.9039 20.7843 43.9294 21.9525C43.9548 23.1422 42.9099 24.2028 41.7163 24.195C40.5187 24.1871 39.4895 23.1246 39.5247 21.9329C39.558 20.7726 40.5774 19.7844 41.7358 19.7883ZM31.32 27.4628C32.539 27.4588 33.4881 28.3942 33.5018 29.6113C33.5155 30.8166 32.5723 31.8048 31.3806 31.8342C30.1498 31.8655 29.1343 30.8617 29.1421 29.625C29.1499 28.4235 30.1146 27.4667 31.32 27.4628ZM20.9374 35.1176C22.1584 35.1215 23.0996 36.0549 23.1074 37.272C23.1133 38.4852 22.1799 39.4479 20.9726 39.4675C19.7164 39.489 18.7458 38.5185 18.7595 37.2583C18.7732 36.0334 19.7085 35.1137 20.9374 35.1176ZM2.9919 62.3108C2.99581 61.9585 3.09758 61.5085 3.32652 61.2737C5.87618 58.681 8.46105 56.1235 11.0166 53.5758C12.6192 55.1842 14.1709 56.7438 15.6854 58.2642C11.5175 62.4243 7.29679 66.6391 2.97625 70.9518C2.97625 70.4176 2.97625 69.9206 2.97625 69.4236C2.97821 67.054 2.96254 64.6824 2.9919 62.3108ZM66.1993 97.0785C45.4752 97.0609 24.7511 97.0629 4.02703 97.0707C3.40087 97.0707 2.9645 97.012 2.96842 96.2019C2.99385 90.8658 2.98603 85.5317 2.9919 80.1956C2.9919 80.1349 3.02516 80.0743 3.06234 79.951C24.4009 79.951 45.757 79.951 67.2501 79.951C67.2501 82.5867 67.2501 85.1521 67.2501 87.7174C67.2501 90.4823 67.2266 93.2492 67.2657 96.0141C67.2736 96.8222 67.0114 97.0785 66.1993 97.0785Z" fill="#5C6680"/>
<path d="M30.5101 2.92494C30.8016 2.94647 31.0951 2.93081 31.3886 2.93081C42.8396 2.93081 54.2926 2.93081 65.7436 2.93081C67.2483 2.93081 67.2483 2.93081 67.2483 4.40425C67.2483 22.2969 67.2483 40.1915 67.2503 58.0842C67.2503 58.4736 67.219 58.8786 67.3148 59.2484C67.5086 59.994 68.0193 60.4166 68.8157 60.3599C69.6042 60.3031 70.0563 59.8413 70.1561 59.0645C70.1971 58.7436 70.1756 58.4149 70.1756 58.09C70.1756 49.0791 70.1756 40.0663 70.1756 31.0554C70.1756 22.0445 70.1776 13.0316 70.1756 4.02073C70.1756 1.28713 68.9018 0.00544983 66.1936 0.00349307C54.5137 0.0015363 42.8338 0.00349307 31.1558 0.00349307C30.9288 0.00349307 30.6999 -0.00824752 30.4729 0.0113201C29.6276 0.0817636 29.0386 0.664879 29.021 1.4378C29.0014 2.24203 29.6158 2.86232 30.5101 2.92494Z" fill="#5C6680"/>
<path d="M37.4016 69.1457C36.7383 69.3688 36.4467 69.9108 36.5054 70.6016C36.5641 71.2943 36.9555 71.7463 37.6462 71.8754C37.9632 71.9341 38.2939 71.9185 38.6187 71.9185C42.1663 71.9204 45.714 71.9204 49.2616 71.9204C52.4178 71.9204 55.576 71.9204 58.7323 71.9204C59.3506 71.9204 59.969 71.9361 60.5873 71.9067C61.4209 71.8676 61.9179 71.4215 61.9962 70.582C62.0725 69.7778 61.5598 69.1614 60.7106 69.0244C60.4249 68.9794 60.1275 68.9931 59.8339 68.9931C52.772 68.9912 45.71 68.9892 38.6461 68.997C38.2313 68.997 37.791 69.0146 37.4016 69.1457Z" fill="#5C6680"/>
<path d="M54.4509 39.0938C53.6526 39.0625 52.9286 39.2073 52.6037 40.0408C52.3024 40.8177 52.68 41.4008 53.2299 41.9409C54.807 43.4906 56.3607 45.0619 57.9242 46.6254C59.0552 47.7564 59.8516 47.9149 60.5776 47.1556C61.2605 46.4414 61.0883 45.6489 60.016 44.5747C59.2313 43.79 58.4486 43.0034 57.4722 42.027C58.2451 42.027 58.6932 42.0152 59.1393 42.0289C59.8751 42.0543 60.4954 41.8802 60.8241 41.1405C61.1587 40.3891 60.83 39.8276 60.3134 39.3129C58.6345 37.636 56.9634 35.9512 55.2747 34.2821C54.449 33.4661 53.6213 33.4133 52.9697 34.0884C52.367 34.7126 52.4315 35.5598 53.1849 36.321C54.0302 37.1742 54.9069 37.998 55.7698 38.8355C55.7404 38.9235 55.7091 39.0096 55.6798 39.0977C55.2708 39.0977 54.8599 39.1114 54.4509 39.0938Z" fill="#5C6680"/>
<path d="M44.2307 51.0105C44.1857 53.1218 44.2014 55.2332 44.2268 57.3445C44.2385 58.3933 44.8569 59.0175 45.7491 58.9862C46.5984 58.9569 47.1267 58.3483 47.1404 57.3328C47.158 56.1724 47.1443 55.012 47.1443 53.6443C47.8448 54.1198 48.3301 54.5052 48.8663 54.8027C49.8466 55.3447 50.9933 54.8085 51.0246 53.7147C51.0931 51.4116 51.0696 49.1026 51.0285 46.7975C51.0148 46.0481 50.461 45.6254 49.7507 45.5511C49.0287 45.4767 48.473 45.8289 48.2655 46.5412C48.1501 46.9365 48.152 47.3728 48.1442 47.7916C48.1286 48.7073 48.1384 49.6212 48.1384 50.7287C47.5357 50.3119 47.1463 50.0282 46.7452 49.766C45.4772 48.9441 44.262 49.5194 44.2307 51.0105Z" fill="#5C6680"/>
<path d="M9.99505 17.6242C12.1436 17.6359 14.2921 17.6281 16.4387 17.6281C18.5226 17.6281 20.6046 17.634 22.6886 17.6261C23.8842 17.6203 24.4927 17.133 24.5084 16.2055C24.524 15.278 23.892 14.7086 22.7414 14.7066C18.4776 14.6929 14.2138 14.6929 9.95004 14.7086C8.8523 14.7125 8.24178 15.2604 8.22612 16.1527C8.21047 17.0919 8.82294 17.6183 9.99505 17.6242Z" fill="#5C6680"/>
<path d="M60.3898 63.0661C58.4722 63.0465 56.5526 63.0485 54.633 63.0661C53.6487 63.0759 53.0049 63.659 52.9893 64.4886C52.9736 65.3574 53.635 65.9601 54.6741 65.9836C55.6172 66.0032 56.5604 65.9875 57.5036 65.9875C58.4467 65.9875 59.3899 66.0032 60.333 65.9836C61.3936 65.9621 62.0178 65.3927 62.0061 64.4945C61.9943 63.6218 61.4093 63.0759 60.3898 63.0661Z" fill="#5C6680"/>
<path d="M9.77602 11.6873C10.7505 11.7186 11.7269 11.6952 12.7033 11.6932C13.7111 11.6932 14.7208 11.7226 15.7265 11.6834C16.6462 11.6482 17.2332 11.0416 17.2332 10.2217C17.2332 9.40575 16.6364 8.79328 15.7226 8.77959C13.7385 8.75219 11.7543 8.75415 9.7721 8.77567C8.81916 8.78741 8.24974 9.33922 8.22821 10.1748C8.20473 11.0494 8.79568 11.6541 9.77602 11.6873Z" fill="#5C6680"/>
<path d="M21.5754 86.6745C21.7691 86.6843 21.9648 86.6784 22.1605 86.6784C30.8133 86.6784 39.4661 86.6803 48.1189 86.6725C48.5357 86.6725 48.974 86.6588 49.3673 86.5375C50.0776 86.3164 50.4044 85.7567 50.3222 85.0288C50.24 84.3009 49.8017 83.8509 49.0542 83.7667C48.7646 83.7334 48.4692 83.7491 48.1776 83.7491C43.8179 83.7491 39.4602 83.7491 35.1006 83.7491C30.6117 83.7491 26.1229 83.7452 21.6341 83.753C20.5168 83.755 19.9259 84.2579 19.9102 85.1658C19.8945 86.0581 20.5129 86.6216 21.5754 86.6745Z" fill="#5C6680"/>
<path d="M39.4052 89.7152C35.8615 89.6996 32.3178 89.6996 28.7721 89.7133C27.6939 89.7172 27.0443 90.2788 27.0169 91.1398C26.9895 92.0301 27.6666 92.621 28.7917 92.6308C30.5469 92.6484 32.3041 92.6347 34.0593 92.6347C35.8478 92.6347 37.6363 92.6504 39.4248 92.6289C40.5245 92.6152 41.1134 92.079 41.1095 91.1691C41.1037 90.2729 40.499 89.7211 39.4052 89.7152Z" fill="#5C6680"/>
<path d="M21.0412 89.7152C17.6932 89.6996 14.3432 89.6996 10.9952 89.7152C9.91897 89.7191 9.26934 90.2847 9.24781 91.1476C9.22629 92.0379 9.90137 92.621 11.0285 92.6328C12.6858 92.6484 14.3452 92.6367 16.0025 92.6367C17.6932 92.6367 19.3838 92.6523 21.0745 92.6308C22.1703 92.6171 22.7593 92.0751 22.7514 91.1632C22.7436 90.269 22.137 89.7211 21.0412 89.7152Z" fill="#5C6680"/>
<path d="M57.2235 89.7173C53.8422 89.6977 50.4609 89.6977 47.0796 89.7173C46.0171 89.7231 45.3694 90.3219 45.3753 91.1927C45.3812 92.0556 46.0308 92.6191 47.1031 92.6328C48.7605 92.6524 50.4198 92.6387 52.0772 92.6367C53.8011 92.6367 55.523 92.6544 57.247 92.6289C58.2958 92.6133 58.8593 92.0947 58.8789 91.2181C58.9004 90.3121 58.2977 89.7231 57.2235 89.7173Z" fill="#5C6680"/>
</svg>
