<svg width="100" height="69" viewBox="0 0 100 69" fill="none" xmlns="http://www.w3.org/2000/svg">
<path d="M73.5218 0C73.5218 1.05192 73.5218 1.97333 73.5218 2.99653C81.3916 2.99653 89.1909 2.99653 96.9877 2.99653C96.9877 23.9879 96.9877 44.8774 96.9877 65.874C89.1205 65.874 81.3264 65.874 73.5035 65.874C73.5035 66.879 73.5035 67.7743 73.5035 68.8001C82.3704 68.8001 91.1851 68.8001 99.9998 68.8001C99.9998 45.8667 99.9998 22.9334 99.9998 0C91.1851 0 82.3704 0 73.5218 0Z" fill="#5C6680"/>
<path d="M41.9462 11.0282C31.0537 11.0282 20.2553 11.0282 9.37329 11.0282C9.37329 19.3443 9.37329 27.5457 9.37329 35.7861C20.2605 35.7861 31.1112 35.7861 41.9462 35.7861C41.9462 27.483 41.9462 19.266 41.9462 11.0282ZM12.3542 13.983C21.2289 13.983 30.0697 13.983 39.0384 13.983C39.0384 17.4572 39.0384 20.8609 39.0384 24.356C37.4827 22.7794 35.9923 21.2707 34.4784 19.7359C32.3014 21.9598 30.2863 24.0219 28.2817 26.0735C26.6373 24.3977 25.1442 22.8786 23.5833 21.2864C19.762 24.6248 16.1233 27.8041 12.3568 31.0929C12.3542 25.2983 12.3542 19.668 12.3542 13.983ZM14.7921 32.8835C17.726 30.3125 20.4667 27.9137 23.1422 25.5723C25.588 28.0233 27.9867 30.4273 30.4403 32.8835C25.3139 32.8835 20.2109 32.8835 14.7921 32.8835ZM39.0828 32.907C37.7098 32.907 36.423 32.9201 35.1361 32.8914C34.943 32.8862 34.7237 32.7139 34.5697 32.5625C33.1054 31.1321 31.6541 29.6886 30.2159 28.2661C31.6698 26.8148 33.0192 25.4679 34.4314 24.0558C35.8644 25.4914 37.3574 26.9792 38.8348 28.4827C38.9758 28.6263 39.0697 28.8795 39.0749 29.0857C39.0932 30.3177 39.0828 31.5471 39.0828 32.907Z" fill="#5C6680"/>
<path d="M2.86877 36.0053C1.8795 36.0053 0.981584 36.0053 0.0262451 36.0053C0.0262451 46.9682 0.0262451 57.8528 0.0262451 68.7296C22.9518 68.7296 45.7964 68.7296 68.6932 68.7296C68.6932 67.7586 68.6932 66.8372 68.6932 65.8088C46.7413 65.8088 24.8494 65.8088 2.86877 65.8088C2.86877 55.8169 2.86877 45.9346 2.86877 36.0053Z" fill="#5C6680"/>
<path d="M2.87646 2.94432C24.8936 2.94432 46.7829 2.94432 68.6748 2.94432C68.6748 1.91328 68.6748 0.99188 68.6748 0.0887451C45.7284 0.0887451 22.8629 0.0887451 0 0.0887451C0 10.5035 0 20.8452 0 31.2025C0.978831 31.2025 1.90024 31.2025 2.87646 31.2025C2.87646 21.7979 2.87646 12.4586 2.87646 2.94432Z" fill="#5C6680"/>
<path d="M73.5143 20.3988C71.9116 20.3988 70.3663 20.3988 68.8106 20.3988C68.8106 21.422 68.8106 22.32 68.8106 23.3484C70.4081 23.3484 71.9507 23.3484 73.59 23.3484C73.59 24.9615 73.59 26.4441 73.59 27.9685C79.8231 27.9685 85.9519 27.9685 92.1094 27.9685C92.1094 21.7666 92.1094 15.6352 92.1094 9.48291C85.9128 9.48291 79.7788 9.48291 73.5508 9.48291C73.5508 11.0386 73.5508 12.5238 73.5508 14.1291C71.9142 14.1291 70.3715 14.1291 68.8054 14.1291C68.8054 15.1497 68.8054 16.045 68.8054 17.0708C70.3977 17.0708 71.9403 17.0708 73.5116 17.0708C73.5143 18.2271 73.5143 19.2503 73.5143 20.3988ZM76.5917 17.1204C78.6094 17.1204 80.6401 17.1204 82.7596 17.1204C82.7596 16.0946 82.7596 15.1732 82.7596 14.1474C80.7367 14.1474 78.7007 14.1474 76.5943 14.1474C76.5943 13.5183 76.5943 12.9937 76.5943 12.4116C80.7863 12.4116 84.9392 12.4116 89.1625 12.4116C89.1625 16.6192 89.1625 20.793 89.1625 25.0241C84.9705 25.0241 80.8176 25.0241 76.5943 25.0241C76.5943 24.5073 76.5943 24.0035 76.5943 23.3875C78.6146 23.3875 80.6454 23.3875 82.7622 23.3875C82.7622 22.3591 82.7622 21.4377 82.7622 20.3806C80.6793 20.3806 78.6694 20.3806 76.5917 20.3806C76.5917 19.2817 76.5917 18.2558 76.5917 17.1204Z" fill="#5C6680"/>
<path d="M51.3924 60.9694C51.3924 43.1938 51.3924 25.5331 51.3924 7.86456C50.4084 7.86456 49.4896 7.86456 48.5525 7.86456C48.5525 25.6062 48.5525 43.2669 48.5525 60.9694C49.5157 60.9694 50.4162 60.9694 51.3924 60.9694Z" fill="#5C6680"/>
<path d="M57.8606 35.807C69.3377 35.807 80.747 35.807 92.1928 35.807C92.1928 34.8333 92.1928 33.9354 92.1928 32.9775C80.7261 32.9775 69.3116 32.9775 57.8606 32.9775C57.8606 33.9485 57.8606 34.8673 57.8606 35.807Z" fill="#5C6680"/>
<path d="M92.1957 40.8499C80.669 40.8499 69.2649 40.8499 57.8583 40.8499C57.8583 41.8313 57.8583 42.7266 57.8583 43.6532C69.3302 43.6532 80.742 43.6532 92.1957 43.6532C92.1957 42.6901 92.1957 41.7921 92.1957 40.8499Z" fill="#5C6680"/>
<path d="M92.1931 48.6884C80.6637 48.6884 69.2571 48.6884 57.8583 48.6884C57.8583 49.6698 57.8583 50.5677 57.8583 51.4865C69.3328 51.4865 80.742 51.4865 92.1931 51.4865C92.1931 50.5207 92.1931 49.6228 92.1931 48.6884Z" fill="#5C6680"/>
<path d="M42.0845 48.6701C31.1346 48.6701 20.2448 48.6701 9.31323 48.6701C9.31323 49.6333 9.31323 50.5312 9.31323 51.4683C20.3283 51.4683 31.2129 51.4683 42.0845 51.4683C42.0845 50.4842 42.0845 49.5863 42.0845 48.6701Z" fill="#5C6680"/>
<path d="M9.32092 43.6585C18.1774 43.6585 26.979 43.6585 35.8329 43.6585C35.8329 42.7084 35.8329 41.8131 35.8329 40.8369C26.9477 40.8369 18.1487 40.8369 9.32092 40.8369C9.32092 41.8105 9.32092 42.7058 9.32092 43.6585Z" fill="#5C6680"/>
<path d="M62.5382 14.1761C62.5382 15.1393 62.5382 16.0372 62.5382 16.9951C63.6162 16.9951 64.5768 16.9951 65.54 16.9951C65.54 16.0111 65.54 15.0897 65.54 14.1761C64.4985 14.1761 63.5379 14.1761 62.5382 14.1761Z" fill="#5C6680"/>
<path d="M62.5251 23.244C63.6032 23.244 64.5872 23.244 65.5608 23.244C65.5608 22.2625 65.5608 21.3672 65.5608 20.4589C64.5115 20.4589 63.5275 20.4589 62.5251 20.4589C62.5251 21.4142 62.5251 22.2886 62.5251 23.244Z" fill="#5C6680"/>
<path d="M18.5977 59.3355C18.5977 58.3175 18.5977 57.4222 18.5977 56.5217C17.5458 56.5217 16.5617 56.5217 15.5959 56.5217C15.5959 57.5005 15.5959 58.3958 15.5959 59.3355C16.6218 59.3355 17.5771 59.3355 18.5977 59.3355Z" fill="#5C6680"/>
<path d="M57.8502 59.3198C58.8865 59.3198 59.8679 59.3198 60.8859 59.3198C60.8859 58.3619 60.8859 57.4666 60.8859 56.5217C59.8027 56.5217 58.8238 56.5217 57.8502 56.5217C57.8502 57.4979 57.8502 58.3906 57.8502 59.3198Z" fill="#5C6680"/>
<path d="M85.9022 59.3224C85.9022 58.3409 85.9022 57.4221 85.9022 56.5007C84.866 56.5007 83.908 56.5007 82.924 56.5007C82.924 57.4822 82.924 58.401 82.924 59.3224C83.9654 59.3224 84.9234 59.3224 85.9022 59.3224Z" fill="#5C6680"/>
<path d="M12.3282 59.3303C12.3282 58.3567 12.3282 57.4379 12.3282 56.5217C11.2737 56.5217 10.2896 56.5217 9.33167 56.5217C9.33167 57.5031 9.33167 58.3958 9.33167 59.3303C10.3601 59.3303 11.3154 59.3303 12.3282 59.3303Z" fill="#5C6680"/>
<path d="M92.1901 59.3067C92.1901 58.3331 92.1901 57.4404 92.1901 56.4929C91.2034 56.4929 90.2742 56.4929 89.1831 56.4929C89.1831 57.4378 89.1831 58.3566 89.1831 59.3067C90.2168 59.3067 91.1956 59.3067 92.1901 59.3067Z" fill="#5C6680"/>
</svg>
