<svg width="101" height="100" viewBox="0 0 101 100" fill="none" xmlns="http://www.w3.org/2000/svg">
<path d="M99.1195 48.4462C91.8296 41.1876 84.558 33.9056 77.2837 26.6313C76.211 25.5586 75.4019 25.3863 74.6894 26.0728C73.9481 26.7853 74.1151 27.6231 75.2218 28.7298C81.4598 34.9705 87.7005 41.2085 93.9385 47.4491C94.1786 47.6892 94.4031 47.9503 94.7032 48.2739C70.6124 46.6792 52.6213 25.8927 51.8018 5.35154C51.9766 5.51075 52.1228 5.63082 52.2559 5.76393C58.1285 11.6339 63.9985 17.504 69.8712 23.374C70.1244 23.6271 70.3566 24.0134 70.6568 24.0813C71.2101 24.2066 71.9018 24.3397 72.3612 24.1152C73.2825 23.6611 73.2199 22.5675 72.309 21.654C65.314 14.6512 58.3217 7.64579 51.2902 0.676939C50.883 0.274991 50.1522 0.00614825 49.5728 0.000928135C45.4854 -0.0251724 41.4555 0.499444 37.5065 1.54608C18.273 6.64351 4.2022 21.9176 0.741263 41.4617C0.425446 43.2496 0.242735 45.0583 0 46.8593C0 48.9421 0 51.0275 0 53.1103C0.258395 55.0052 0.475028 56.908 0.780404 58.7976C3.93596 78.2869 19.9956 94.9547 39.391 98.8385C41.6487 99.29 43.9533 99.5119 46.2345 99.8434C46.4564 99.8747 46.6704 99.9478 46.887 100C48.9699 100 51.0553 100 53.1381 100C53.3887 99.9452 53.6366 99.8564 53.8898 99.8381C59.7259 99.4205 65.2957 97.9694 70.6229 95.5577C72.0192 94.926 72.4891 94.1717 72.0349 93.2452C71.6095 92.3812 70.7847 92.2768 69.4066 92.8928C60.2427 96.9827 50.7186 98.092 40.8865 96.158C30.1931 94.0569 21.1467 88.9072 14.2457 80.4924C2.08805 65.6673 -0.503738 49.0491 6.85401 31.4025C12.8832 16.9428 24.083 7.95638 39.3022 4.16136C42.2751 3.4201 45.3784 3.19042 48.4896 2.71539C48.6958 5.05139 48.8759 7.1055 49.0534 9.13351C48.9203 9.19354 48.8629 9.23792 48.8002 9.24314C48.5731 9.26924 48.3461 9.29011 48.119 9.29794C43.3869 9.47543 38.8194 10.4568 34.4841 12.3334C32.2264 13.3096 30.0835 14.5677 27.9276 15.7657C27.1394 16.2015 26.9775 17.0289 27.3612 17.6971C27.771 18.4096 28.5932 18.6472 29.3892 18.2687C29.6241 18.1565 29.8382 18.0051 30.06 17.8694C35.716 14.3797 41.8575 12.4979 48.5027 12.2003C49.4318 12.1586 49.779 12.4039 49.9982 13.3148C52.2533 22.7032 56.9332 30.7161 63.8602 37.4239C64.0795 37.6353 64.424 37.7162 64.7111 37.8598C64.6067 37.9746 64.5049 38.0895 64.4005 38.2043C63.3121 38.0425 62.2263 37.8285 61.1301 37.7345C59.7755 37.6197 58.9533 36.9228 58.3895 35.7221C57.3403 33.4853 56.205 31.2903 55.1218 29.0691C54.0882 26.9524 52.4517 25.7204 50.0609 25.7022C47.6283 25.6839 45.9552 26.9132 44.9034 29.0665C43.7758 31.3738 42.617 33.668 41.4973 35.9779C40.9987 37.0063 40.2262 37.5518 39.0882 37.7032C36.5408 38.0451 34.0064 38.4627 31.4616 38.8177C29.1204 39.1465 27.4682 40.3445 26.7165 42.6075C25.9622 44.8782 26.6095 46.8305 28.293 48.4723C30.0861 50.2236 31.8557 52.0011 33.6906 53.708C34.6459 54.5981 34.9826 55.6055 34.7503 56.8636C34.3744 58.9099 33.9673 60.9562 33.6932 63.0155C33.5183 64.3205 33.2808 65.7195 33.5601 66.9645C34.3483 70.4829 38.1929 72.0646 41.5364 70.3733C43.8568 69.1987 46.1588 67.985 48.4452 66.7427C49.5206 66.158 50.5124 66.1606 51.5851 66.7453C53.7828 67.9433 56.0196 69.0734 58.2251 70.2558C60.3314 71.3833 62.4169 71.4564 64.3875 70.0365C66.4338 68.5619 66.9766 66.4843 66.5355 64.0674C66.0997 61.6687 65.7107 59.2596 65.2749 56.861C65.0452 55.6003 65.3715 54.5876 66.3346 53.7054C67.7988 52.3639 69.1821 50.9362 70.6203 49.5659C71.9931 48.2582 73.3948 46.9819 73.5775 44.9513C73.7419 44.9513 73.815 44.9278 73.862 44.9539C78.085 47.3238 82.5482 49.0674 87.2594 50.1949C87.4838 50.2497 87.7735 50.7534 87.7501 51.0223C87.5595 53.1912 87.4656 55.3863 87.0349 57.5135C82.911 77.9241 62.9415 91.1441 42.5047 87.0463C22.1124 82.9563 8.74369 62.778 12.9746 42.4222C14.6555 34.3336 18.5836 27.5057 24.6702 21.9176C25.529 21.1293 25.649 20.2941 25.0591 19.6233C24.4275 18.9029 23.5505 18.9264 22.6788 19.7721C10.4141 31.6687 6.20672 45.9797 11.2598 62.2821C18.9908 87.2238 47.6283 98.2564 70.2705 85.2558C81.5407 78.7854 88.1781 68.8725 90.2714 56.0023C90.5402 54.3449 90.642 52.6588 90.8247 50.9283C92.9101 51.1136 94.9643 51.2963 97.0445 51.4817C97.0445 51.7818 97.0575 52.0089 97.0419 52.2334C96.2954 64.5111 91.6625 75.0661 82.8249 83.6506C80.528 85.8796 77.8292 87.6962 75.2949 89.6772C74.7442 90.1079 74.23 90.5881 74.4753 91.2876C74.6371 91.7418 75.0965 92.2768 75.5272 92.3969C75.9683 92.5222 76.626 92.3108 77.041 92.0315C91.6965 82.1394 99.3648 68.3557 100.03 50.6778C100.07 49.759 99.7694 49.0908 99.1195 48.4462ZM69.7381 46.3268C67.898 48.1251 66.0762 49.9417 64.2048 51.7061C62.5082 53.3061 61.9888 55.2193 62.409 57.4743C62.858 59.873 63.2469 62.2795 63.6645 64.6833C63.8655 65.8448 63.7454 66.9071 62.7014 67.6562C61.673 68.3948 60.6499 68.2356 59.5876 67.664C57.3847 66.4738 55.1479 65.3489 52.945 64.1587C50.9404 63.0755 48.9934 63.1121 46.9993 64.2005C44.7181 65.4481 42.4108 66.6565 40.0878 67.8232C38.2008 68.7707 36.2276 67.5204 36.2902 65.1923C36.7 62.8041 37.128 60.1392 37.6161 57.4848C38.0311 55.2297 37.5222 53.3139 35.8256 51.714C34.0038 49.9939 32.2316 48.2165 30.428 46.4756C29.6006 45.6769 29.1021 44.7921 29.4727 43.6019C29.8512 42.3882 30.7282 41.8819 31.9366 41.7201C34.4501 41.3834 36.9532 40.9631 39.4693 40.6264C41.6095 40.3393 43.1547 39.2614 44.1073 37.3326C45.2453 35.0305 46.3859 32.7284 47.5056 30.4159C48.0276 29.3353 48.7715 28.615 50.0504 28.6306C51.285 28.6437 52.0054 29.3536 52.5117 30.395C53.4774 32.3839 54.5762 34.3153 55.4167 36.3564C56.5938 39.2196 58.674 40.5612 61.6939 40.8196C63.8942 41.0075 66.071 41.446 68.2634 41.7488C69.4092 41.908 70.1844 42.5005 70.5498 43.5941C70.91 44.6825 70.5159 45.5673 69.7381 46.3268Z" fill="#5C6680"/>
</svg>
