<svg width="100" height="107" viewBox="0 0 100 107" fill="none" xmlns="http://www.w3.org/2000/svg">
<path d="M18.6394 106.334C17.6614 105.733 17.5235 104.815 17.5235 103.748C17.5443 85.7516 17.5287 67.7548 17.5651 49.7579C17.5677 48.7825 17.2452 48.3898 16.3816 48.0542C11.4526 46.1425 6.54957 44.1708 1.63874 42.2148C0.0598907 41.5854 -0.23402 41.0496 0.15354 39.4421C1.9899 31.8522 3.80283 24.257 5.69121 16.6801C6.75765 12.3987 9.38215 9.39968 13.5153 7.78701C19.9191 5.28738 26.3281 2.80075 32.745 0.334929C33.2782 0.129445 33.8817 0.0176035 34.4539 0.0150024C44.8712 -0.00320509 55.2885 -0.0110115 65.7058 0.0280046C66.4965 0.0306057 67.3107 0.345343 68.0702 0.636663C74.1307 2.96983 80.1782 5.34201 86.2361 7.67777C90.6891 9.39448 93.3604 12.6016 94.4633 17.2159C96.206 24.5067 97.9982 31.7871 99.7747 39.0727C100.274 41.1198 100.045 41.5594 98.0424 42.3553C93.194 44.2801 88.356 46.2335 83.4894 48.1115C82.6544 48.434 82.4307 48.8528 82.4437 49.6955C82.4905 52.9469 82.4645 56.2008 82.4593 59.4548C82.4593 59.8345 82.4671 60.2221 82.3969 60.5914C82.2512 61.3587 81.757 61.8087 80.9845 61.8894C80.1678 61.9752 79.5461 61.6266 79.2808 60.8411C79.1404 60.4275 79.1117 59.9594 79.1117 59.5146C79.1039 48.9594 79.0935 38.4017 79.1326 27.8465C79.1352 27.1312 79.3823 26.3353 79.749 25.7162C82.3943 21.2554 85.0968 16.8309 87.8565 12.2739C87.1387 11.8707 86.491 11.4025 85.7679 11.119C79.9493 8.83004 74.1177 6.57491 68.2887 4.30938C68.195 4.27296 68.091 4.25475 67.9063 4.20793C67.5136 7.0457 66.7462 9.75862 65.3131 12.2322C62.1085 17.7647 57.5722 21.4374 50.9889 21.8926C45.818 22.249 41.5496 20.1421 38.0356 16.4668C34.9871 13.2779 33.1664 9.4543 32.5057 5.08449C32.4745 4.87901 32.4276 4.67613 32.3808 4.47585C32.3574 4.37701 32.3132 4.28336 32.2404 4.08828C25.5374 6.74137 18.733 9.09275 12.0847 12.136C13.3384 14.2195 14.4568 16.0792 15.5779 17.9364C17.1151 20.4829 18.7018 23.0007 20.1662 25.5862C20.5876 26.3275 20.8737 27.2587 20.8763 28.104C20.9153 50.2886 20.9075 72.4731 20.9075 94.6577C20.9075 95.1051 20.9075 95.5525 20.9075 96.1533C21.3237 96.1533 21.6904 96.1533 22.0546 96.1533C25.3085 96.1533 28.5625 96.1091 31.8138 96.1923C32.4459 96.2079 33.2808 96.5565 33.6501 97.0377C34.4591 98.0911 33.5539 99.4645 32.0895 99.4827C29.2855 99.5165 26.4842 99.4931 23.6802 99.4931C22.8167 99.4931 21.9557 99.4931 21.0011 99.4931C21.0011 100.651 21.0011 101.761 21.0011 102.932C40.3427 102.932 59.6687 102.932 79.0519 102.932C79.0519 101.79 79.0519 100.703 79.0519 99.4931C78.6045 99.4931 78.2014 99.4931 77.7982 99.4931C64.785 99.4931 51.7718 99.4931 38.7587 99.4931C36.9873 99.4931 36.1966 98.9573 36.2278 97.7816C36.2564 96.6553 37.0316 96.1533 38.7457 96.1533C51.7588 96.1533 64.772 96.1533 77.7852 96.1533C78.191 96.1533 78.5993 96.1533 79.1091 96.1533C79.1091 95.6461 79.1091 95.2403 79.1091 94.8346C79.1091 85.4551 79.1065 76.0756 79.1169 66.6961C79.1169 66.2175 79.0571 65.6037 79.3172 65.2942C79.7152 64.8182 80.3343 64.324 80.9117 64.2537C81.666 64.1601 82.2669 64.7115 82.4099 65.5439C82.4749 65.9158 82.4697 66.3008 82.4697 66.6805C82.4723 79.0695 82.4645 91.461 82.4853 103.85C82.4879 104.885 82.3033 105.754 81.3721 106.329C60.4516 106.334 39.5468 106.334 18.6394 106.334ZM64.5873 3.41721C54.8515 3.41721 45.2848 3.41721 35.6608 3.41721C35.9313 6.59052 36.9275 9.42309 38.6598 11.9982C43.7865 19.6245 52.9033 20.7846 59.3722 14.594C62.5221 11.5742 64.1634 7.81823 64.5873 3.41721ZM90.338 15.2157C90.2157 15.2287 90.0935 15.2417 89.9712 15.2547C88.3455 17.9442 86.8707 20.7404 85.0526 23.292C82.9873 26.187 82.0379 29.2329 82.4307 32.7703C82.605 34.3284 82.4593 35.9202 82.4593 37.6708C86.6496 35.9124 90.6683 34.2269 94.7468 32.5154C93.1653 26.6968 92.1093 20.8626 90.338 15.2157ZM5.24643 32.5232C9.38734 34.2555 13.4008 35.9358 17.5365 37.6656C17.5365 34.3388 17.5521 31.2279 17.5183 28.117C17.5131 27.7346 17.3128 27.3211 17.1099 26.9777C14.8886 23.2764 12.6465 19.5829 10.407 15.892C10.2717 15.6683 10.1078 15.4602 9.7697 14.9712C7.86052 20.8548 6.8539 26.6968 5.24643 32.5232ZM4.48173 35.8396C4.17741 37.1089 3.90688 38.2326 3.62597 39.4031C8.28969 41.2524 12.8546 43.0602 17.5365 44.9173C17.5365 43.7781 17.5807 42.8417 17.5105 41.9131C17.4871 41.6218 17.2088 41.2134 16.9461 41.1016C12.852 39.3433 8.73969 37.6265 4.48173 35.8396ZM82.4619 44.9226C87.2063 43.0368 91.753 41.2316 96.3751 39.3953C96.0837 38.1988 95.8106 37.0777 95.5089 35.8448C91.2354 37.6369 87.0684 39.3745 82.9145 41.1458C82.7012 41.2368 82.4932 41.601 82.4801 41.8481C82.4333 42.8079 82.4619 43.7729 82.4619 44.9226Z" fill="white"/>
<path d="M50.076 5.79458C51.4233 5.79458 52.7733 5.77898 54.1206 5.79979C55.3067 5.818 56.0012 6.41364 56.0324 7.39425C56.0662 8.42167 55.3483 9.11876 54.1414 9.12916C51.4103 9.15257 48.6766 9.15257 45.9455 9.12916C44.8114 9.11876 44.0805 8.42948 44.0727 7.46709C44.0649 6.49949 44.7906 5.8232 45.9247 5.80239C47.3084 5.77638 48.6922 5.79458 50.076 5.79458Z" fill="white"/>
</svg>
